<?xml version="1.0" encoding="us-ascii" standalone="no"?><svg xmlns="http://www.w3.org/2000/svg" xmlns:xlink="http://www.w3.org/1999/xlink" contentStyleType="text/css" height="423px" preserveAspectRatio="none" style="width:751px;height:423px;background:#FFFFFF;" version="1.1" viewBox="0 0 751 423" width="751px" zoomAndPan="magnify"><defs/><g><!--cluster census--><g id="cluster_census"><path d="M8.5,6 L66.5,6 A3.75,3.75 0 0 1 69,8.5 L76,28.2969 L590.5,28.2969 A2.5,2.5 0 0 1 593,30.7969 L593,224.88 A2.5,2.5 0 0 1 590.5,227.38 L8.5,227.38 A2.5,2.5 0 0 1 6,224.88 L6,8.5 A2.5,2.5 0 0 1 8.5,6 " fill="none" style="stroke:#000000;stroke-width:1.5;"/><line style="stroke:#000000;stroke-width:1.5;" x1="6" x2="76" y1="28.2969" y2="28.2969"/><text fill="#000000" font-family="sans-serif" font-size="14" font-weight="bold" lengthAdjust="spacing" textLength="57" x="10" y="20.9951">census</text></g><!--cluster prouni--><g id="cluster_prouni"><path d="M37.5,276.38 L89.5,276.38 A3.75,3.75 0 0 1 92,278.88 L99,298.6769 L682.5,298.6769 A2.5,2.5 0 0 1 685,301.1769 L685,413.77 A2.5,2.5 0 0 1 682.5,416.27 L37.5,416.27 A2.5,2.5 0 0 1 35,413.77 L35,278.88 A2.5,2.5 0 0 1 37.5,276.38 " fill="none" style="stroke:#000000;stroke-width:1.5;"/><line style="stroke:#000000;stroke-width:1.5;" x1="35" x2="99" y1="298.6769" y2="298.6769"/><text fill="#000000" font-family="sans-serif" font-size="14" font-weight="bold" lengthAdjust="spacing" textLength="51" x="39" y="291.3751">prouni</text></g><!--class City--><g id="elem_City"><rect codeLine="6" fill="#F1F1F1" height="88.8906" id="City" rx="2.5" ry="2.5" style="stroke:#181818;stroke-width:0.5;" width="196" x="22" y="81.75"/><ellipse cx="103.25" cy="97.75" fill="#ADD1B2" rx="11" ry="11" style="stroke:#181818;stroke-width:1.0;"/><path d="M106.2188,103.3906 Q105.6406,103.6875 105,103.8281 Q104.3594,103.9844 103.6563,103.9844 Q101.1563,103.9844 99.8281,102.3438 Q98.5156,100.6875 98.5156,97.5625 Q98.5156,94.4375 99.8281,92.7813 Q101.1563,91.125 103.6563,91.125 Q104.3594,91.125 105,91.2813 Q105.6563,91.4375 106.2188,91.7344 L106.2188,94.4531 Q105.5938,93.875 105,93.6094 Q104.4063,93.3281 103.7813,93.3281 Q102.4375,93.3281 101.75,94.4063 Q101.0625,95.4688 101.0625,97.5625 Q101.0625,99.6563 101.75,100.7344 Q102.4375,101.7969 103.7813,101.7969 Q104.4063,101.7969 105,101.5313 Q105.5938,101.25 106.2188,100.6719 L106.2188,103.3906 Z " fill="#000000"/><text fill="#000000" font-family="sans-serif" font-size="14" lengthAdjust="spacing" textLength="25" x="123.75" y="102.5967">City</text><line style="stroke:#181818;stroke-width:0.5;" x1="23" x2="217" y1="113.75" y2="113.75"/><rect fill="none" height="6" style="stroke:#C82930;stroke-width:1.0;" width="6" x="30" y="124.3984"/><text fill="#000000" font-family="sans-serif" font-size="14" lengthAdjust="spacing" textLength="88" x="42" y="130.7451">name: String</text><rect fill="none" height="6" style="stroke:#C82930;stroke-width:1.0;" width="6" x="30" y="140.6953"/><text fill="#000000" font-family="sans-serif" font-size="14" lengthAdjust="spacing" textLength="150" x="42" y="147.042">federative_unit: String</text><rect fill="none" height="6" style="stroke:#C82930;stroke-width:1.0;" width="6" x="30" y="156.9922"/><text fill="#000000" font-family="sans-serif" font-size="14" lengthAdjust="spacing" textLength="170" x="42" y="163.3389">is_metropolitan: boolean</text></g><!--class Census--><g id="elem_Census"><rect codeLine="12" fill="#F1F1F1" height="170.375" id="Census" rx="2.5" ry="2.5" style="stroke:#181818;stroke-width:0.5;" width="241" x="336.5" y="41"/><ellipse cx="426.25" cy="57" fill="#ADD1B2" rx="11" ry="11" style="stroke:#181818;stroke-width:1.0;"/><path d="M429.2188,62.6406 Q428.6406,62.9375 428,63.0781 Q427.3594,63.2344 426.6563,63.2344 Q424.1563,63.2344 422.8281,61.5938 Q421.5156,59.9375 421.5156,56.8125 Q421.5156,53.6875 422.8281,52.0313 Q424.1563,50.375 426.6563,50.375 Q427.3594,50.375 428,50.5313 Q428.6563,50.6875 429.2188,50.9844 L429.2188,53.7031 Q428.5938,53.125 428,52.8594 Q427.4063,52.5781 426.7813,52.5781 Q425.4375,52.5781 424.75,53.6563 Q424.0625,54.7188 424.0625,56.8125 Q424.0625,58.9063 424.75,59.9844 Q425.4375,61.0469 426.7813,61.0469 Q427.4063,61.0469 428,60.7813 Q428.5938,60.5 429.2188,59.9219 L429.2188,62.6406 Z " fill="#000000"/><text fill="#000000" font-family="sans-serif" font-size="14" lengthAdjust="spacing" textLength="53" x="446.75" y="61.8467">Census</text><line style="stroke:#181818;stroke-width:0.5;" x1="337.5" x2="576.5" y1="73" y2="73"/><rect fill="none" height="6" style="stroke:#C82930;stroke-width:1.0;" width="6" x="344.5" y="83.6484"/><text fill="#000000" font-family="sans-serif" font-size="14" lengthAdjust="spacing" textLength="87" x="356.5" y="89.9951">year: Integer</text><rect fill="none" height="6" style="stroke:#C82930;stroke-width:1.0;" width="6" x="344.5" y="99.9453"/><text fill="#000000" font-family="sans-serif" font-size="14" lengthAdjust="spacing" textLength="168" x="356.5" y="106.292">total_population: Integer</text><rect fill="none" height="6" style="stroke:#C82930;stroke-width:1.0;" width="6" x="344.5" y="116.2422"/><text fill="#000000" font-family="sans-serif" font-size="14" lengthAdjust="spacing" textLength="181" x="356.5" y="122.5889">young_population: Integer</text><rect fill="none" height="6" style="stroke:#C82930;stroke-width:1.0;" width="6" x="344.5" y="132.5391"/><text fill="#000000" font-family="sans-serif" font-size="14" lengthAdjust="spacing" textLength="175" x="356.5" y="138.8857">white_population: Integer</text><rect fill="none" height="6" style="stroke:#C82930;stroke-width:1.0;" width="6" x="344.5" y="148.8359"/><text fill="#000000" font-family="sans-serif" font-size="14" lengthAdjust="spacing" textLength="174" x="356.5" y="155.1826">black_population: Integer</text><rect fill="none" height="6" style="stroke:#C82930;stroke-width:1.0;" width="6" x="344.5" y="165.1328"/><text fill="#000000" font-family="sans-serif" font-size="14" lengthAdjust="spacing" textLength="177" x="356.5" y="171.4795">parda_population: Integer</text><rect fill="none" height="6" style="stroke:#C82930;stroke-width:1.0;" width="6" x="344.5" y="181.4297"/><text fill="#000000" font-family="sans-serif" font-size="14" lengthAdjust="spacing" textLength="180" x="356.5" y="187.7764">yellow_population: Integer</text><rect fill="none" height="6" style="stroke:#C82930;stroke-width:1.0;" width="6" x="344.5" y="197.7266"/><text fill="#000000" font-family="sans-serif" font-size="14" lengthAdjust="spacing" textLength="215" x="356.5" y="204.0732">indigenous_population: Integer</text></g><!--class Institution--><g id="elem_Institution"><rect codeLine="37" fill="#F1F1F1" height="72.5938" id="Institution" rx="2.5" ry="2.5" style="stroke:#181818;stroke-width:0.5;" width="163" x="505.5" y="319.53"/><ellipse cx="548.85" cy="335.53" fill="#ADD1B2" rx="11" ry="11" style="stroke:#181818;stroke-width:1.0;"/><path d="M551.8188,341.1706 Q551.2406,341.4675 550.6,341.6081 Q549.9594,341.7644 549.2563,341.7644 Q546.7563,341.7644 545.4281,340.1238 Q544.1156,338.4675 544.1156,335.3425 Q544.1156,332.2175 545.4281,330.5613 Q546.7563,328.905 549.2563,328.905 Q549.9594,328.905 550.6,329.0613 Q551.2563,329.2175 551.8188,329.5144 L551.8188,332.2331 Q551.1938,331.655 550.6,331.3894 Q550.0063,331.1081 549.3813,331.1081 Q548.0375,331.1081 547.35,332.1863 Q546.6625,333.2488 546.6625,335.3425 Q546.6625,337.4363 547.35,338.5144 Q548.0375,339.5769 549.3813,339.5769 Q550.0063,339.5769 550.6,339.3113 Q551.1938,339.03 551.8188,338.4519 L551.8188,341.1706 Z " fill="#000000"/><text fill="#000000" font-family="sans-serif" font-size="14" lengthAdjust="spacing" textLength="68" x="569.15" y="340.3767">Institution</text><line style="stroke:#181818;stroke-width:0.5;" x1="506.5" x2="667.5" y1="351.53" y2="351.53"/><rect fill="none" height="6" style="stroke:#C82930;stroke-width:1.0;" width="6" x="513.5" y="362.1784"/><text fill="#000000" font-family="sans-serif" font-size="14" lengthAdjust="spacing" textLength="88" x="525.5" y="368.5251">name: String</text><rect fill="none" height="6" style="stroke:#C82930;stroke-width:1.0;" width="6" x="513.5" y="378.4753"/><text fill="#000000" font-family="sans-serif" font-size="14" lengthAdjust="spacing" textLength="137" x="525.5" y="384.822">e_mec_code: String</text></g><!--class Course--><g id="elem_Course"><rect codeLine="42" fill="#F1F1F1" height="56.2969" id="Course" rx="2.5" ry="2.5" style="stroke:#181818;stroke-width:0.5;" width="114" x="291" y="327.68"/><ellipse cx="320.4" cy="343.68" fill="#ADD1B2" rx="11" ry="11" style="stroke:#181818;stroke-width:1.0;"/><path d="M323.3688,349.3206 Q322.7906,349.6175 322.15,349.7581 Q321.5094,349.9144 320.8063,349.9144 Q318.3063,349.9144 316.9781,348.2737 Q315.6656,346.6175 315.6656,343.4925 Q315.6656,340.3675 316.9781,338.7112 Q318.3063,337.055 320.8063,337.055 Q321.5094,337.055 322.15,337.2112 Q322.8063,337.3675 323.3688,337.6644 L323.3688,340.3831 Q322.7438,339.805 322.15,339.5394 Q321.5563,339.2581 320.9313,339.2581 Q319.5875,339.2581 318.9,340.3362 Q318.2125,341.3987 318.2125,343.4925 Q318.2125,345.5862 318.9,346.6644 Q319.5875,347.7269 320.9313,347.7269 Q321.5563,347.7269 322.15,347.4612 Q322.7438,347.18 323.3688,346.6019 L323.3688,349.3206 Z " fill="#000000"/><text fill="#000000" font-family="sans-serif" font-size="14" lengthAdjust="spacing" textLength="50" x="337.6" y="348.5267">Course</text><line style="stroke:#181818;stroke-width:0.5;" x1="292" x2="404" y1="359.68" y2="359.68"/><rect fill="none" height="6" style="stroke:#C82930;stroke-width:1.0;" width="6" x="299" y="370.3284"/><text fill="#000000" font-family="sans-serif" font-size="14" lengthAdjust="spacing" textLength="88" x="311" y="376.6751">name: String</text></g><!--class Concession--><g id="elem_Concession"><rect codeLine="47" fill="#F1F1F1" height="88.8906" id="Concession" rx="2.5" ry="2.5" style="stroke:#181818;stroke-width:0.5;" width="137" x="51.5" y="311.38"/><ellipse cx="76.85" cy="327.38" fill="#ADD1B2" rx="11" ry="11" style="stroke:#181818;stroke-width:1.0;"/><path d="M79.8188,333.0206 Q79.2406,333.3175 78.6,333.4581 Q77.9594,333.6144 77.2563,333.6144 Q74.7563,333.6144 73.4281,331.9738 Q72.1156,330.3175 72.1156,327.1925 Q72.1156,324.0675 73.4281,322.4113 Q74.7563,320.755 77.2563,320.755 Q77.9594,320.755 78.6,320.9113 Q79.2563,321.0675 79.8188,321.3644 L79.8188,324.0831 Q79.1938,323.505 78.6,323.2394 Q78.0063,322.9581 77.3813,322.9581 Q76.0375,322.9581 75.35,324.0363 Q74.6625,325.0988 74.6625,327.1925 Q74.6625,329.2863 75.35,330.3644 Q76.0375,331.4269 77.3813,331.4269 Q78.0063,331.4269 78.6,331.1613 Q79.1938,330.88 79.8188,330.3019 L79.8188,333.0206 Z " fill="#000000"/><text fill="#000000" font-family="sans-serif" font-size="14" lengthAdjust="spacing" textLength="82" x="93.15" y="332.2267">Concession</text><line style="stroke:#181818;stroke-width:0.5;" x1="52.5" x2="187.5" y1="343.38" y2="343.38"/><rect fill="none" height="6" style="stroke:#C82930;stroke-width:1.0;" width="6" x="59.5" y="354.0284"/><text fill="#000000" font-family="sans-serif" font-size="14" lengthAdjust="spacing" textLength="87" x="71.5" y="360.3751">year: Integer</text><rect fill="none" height="6" style="stroke:#C82930;stroke-width:1.0;" width="6" x="59.5" y="370.3253"/><text fill="#000000" font-family="sans-serif" font-size="14" lengthAdjust="spacing" textLength="79" x="71.5" y="376.672">color: Color</text><rect fill="none" height="6" style="stroke:#C82930;stroke-width:1.0;" width="6" x="59.5" y="386.6222"/><text fill="#000000" font-family="sans-serif" font-size="14" lengthAdjust="spacing" textLength="111" x="71.5" y="392.9689">birth_date: Date</text></g><!--class Color--><g id="elem_Color"><rect codeLine="26" fill="#F1F1F1" height="137.7813" id="Color" rx="2.5" ry="2.5" style="stroke:#181818;stroke-width:0.5;" width="132" x="612" y="57.3"/><ellipse cx="655.8" cy="73.3" fill="#EB937F" rx="11" ry="11" style="stroke:#181818;stroke-width:1.0;"/><path d="M659.9094,79.3 L652.1906,79.3 L652.1906,66.9094 L659.9094,66.9094 L659.9094,69.0656 L654.6438,69.0656 L654.6438,71.7375 L659.4094,71.7375 L659.4094,73.8937 L654.6438,73.8937 L654.6438,77.1437 L659.9094,77.1437 L659.9094,79.3 Z " fill="#000000"/><text fill="#000000" font-family="sans-serif" font-size="14" lengthAdjust="spacing" textLength="36" x="676.2" y="78.1467">Color</text><line style="stroke:#181818;stroke-width:0.5;" x1="613" x2="743" y1="89.3" y2="89.3"/><text fill="#000000" font-family="sans-serif" font-size="14" lengthAdjust="spacing" textLength="58" x="618" y="106.2951">BRANCA</text><text fill="#000000" font-family="sans-serif" font-size="14" lengthAdjust="spacing" textLength="46" x="618" y="122.592">PRETA</text><text fill="#000000" font-family="sans-serif" font-size="14" lengthAdjust="spacing" textLength="48" x="618" y="138.8889">PARDA</text><text fill="#000000" font-family="sans-serif" font-size="14" lengthAdjust="spacing" textLength="65" x="618" y="155.1857">AMARELA</text><text fill="#000000" font-family="sans-serif" font-size="14" lengthAdjust="spacing" textLength="66" x="618" y="171.4826">INDIGENA</text><text fill="#000000" font-family="sans-serif" font-size="14" lengthAdjust="spacing" textLength="120" x="618" y="187.7795">NAO_INFORMADA</text></g><!--link City to Census--><g id="link_City_Census"><path codeLine="22" d="M218.38,126.19 C255.2,126.19 297.45,126.19 336.07,126.19 " fill="none" id="City-Census" style="stroke:#181818;stroke-width:1.0;"/><text fill="#000000" font-family="sans-serif" font-size="13" lengthAdjust="spacing" textLength="82" x="236.25" y="119.2569">conducted in</text></g><!--link Course to Institution--><g id="link_Course_Institution"><path codeLine="45" d="M405.25,355.82 C435.21,355.82 460.43,355.82 493.36,355.82 " fill="none" id="Course-to-Institution" style="stroke:#181818;stroke-width:1.0;"/><polygon fill="none" points="505.36,355.82,499.36,351.82,493.36,355.82,499.36,359.82,505.36,355.82" style="stroke:#181818;stroke-width:1.0;"/><text fill="#000000" font-family="sans-serif" font-size="13" lengthAdjust="spacing" textLength="64" x="423.25" y="348.8869">offered by</text></g><!--link City to Concession--><g id="link_City_Concession"><path codeLine="52" d="M120,171.08 C120,211.39 120,270.8 120,311.07 " fill="none" id="City-Concession" style="stroke:#181818;stroke-width:1.0;"/><text fill="#000000" font-family="sans-serif" font-size="13" lengthAdjust="spacing" textLength="61" x="121" y="256.4469">resides in</text></g><!--link Concession to Course--><g id="link_Concession_Course"><path codeLine="53" d="M188.72,355.82 C221.23,355.82 259.62,355.82 290.56,355.82 " fill="none" id="Concession-Course" style="stroke:#181818;stroke-width:1.0;"/><text fill="#000000" font-family="sans-serif" font-size="13" lengthAdjust="spacing" textLength="66" x="206.75" y="348.8869">enrolled in</text></g><!--SRC=[ZPDDReCm48NtdCBAdWkmeqbQ8JMaejqZnvuGgsO6-QSHYdBt6aWRY99IBwp1VF8ytZmEIWA3kd4jgw7UWR5HXBm6st01J01QRzafYbXOGdDhsL85zjGVT2jc7PwmTsSKLgFZFKWmtAalA3qgTuTGjgp16Mf8AySnOJiY3Hnxv3pfsUiODss1cuHbwA02CpftvBWk6sgy3hq9xp4jUQnccED1EPXXTfgBpnccuKRoEJsWDHrd88LILO3axKFmtE-3LopMyJ2gX2q4eVJ2WGotBA8eM0leQxOaJUOoogSYpPTfNxuLwuzBbHQheKetQR5-7UeiNsKlwtnuoDDjcUNFssAJ1lGy3azZWizg6fuChLFETzh_ao480H6b83bzESq6UMFXxzikpWnaJ1CPmH_Qxy44TtRjOdep2h3sLkkZw8dEpcHmTPmIPToXbDm5IQkmJmJzDeZzTLm6RFWhRJ-iM-pd8m86Q4Zhwr2_0G00]--></g></svg>